---
title: ECOmmunity
config:
  layout: elk
---
erDiagram
    user {
      int userId PK
      string username
      string email
      string passwordHash
      string address
      string userType
    }

    reviews }o--|| user: posts
    reviews }o--|| user: is_reviewed

    reviews {
      int reviewerId PK, FK
      int reviewedId PK, FK
      int rating
    }

    offer }o--|| user : is_posted_by
    offer }o--o| user : is_reserved_by

    offer {
      int odderId PK
      int productID FK
      int amountOfPruduct
      date postDate
      int postingUserId
      int reservingUserId
      string Status
    }

    productCatalog {
      int productId PK
      string nameInCatalog
    }

    userProduct }o--|| user : is_owned_by
    offer |o--|| userProduct : contains
    userProduct }o--|| productCatalog : is_instance

    userProduct {
      int userProductId PK
      int idInCatalog FK
      int ownerId FK
      string name
      date expiryDate
      int amount
    }

    recipies {
      int recipeId PK
      string recipeInstructions
    }

    recipeProducts }|--|| recipies : uses
    recipeProducts }o--|| productCatalog : is_used

    recipeProducts {
      int recipeId PK, FK
      int productId PK, FK
      int amount
    }

    foodBanks {
      int id
      string name
      string address
    }

    notifications }o--|| user: notifies
    notifications }o--o| userProduct: references
    notifications }o--o| offer: references

    notifications {
      int id PK
      int userId FK
      string type
      string content
      int productReferenced FK
      int offerReferenced FK
    }

    offerReports }o--|| user: reports
    offerReports }o--|| offer: is_reported

    offerReports {
        int id PK
        int offerId FK
        int reporterId FK
        string reasonType
        string explanation
    }
